<svg width="36" height="36" viewBox="0 0 36 36" fill="none" xmlns="http://www.w3.org/2000/svg">
<path d="M18 1.5L30.3255 4.239C31.011 4.392 31.5 4.9995 31.5 5.703V20.6835C31.5 23.6925 29.9955 26.5035 27.492 28.1715L18 34.5L8.508 28.1715C6.003 26.502 4.5 23.6925 4.5 20.685V5.703C4.5 4.9995 4.989 4.392 5.6745 4.239L18 1.5ZM18 4.5735L7.5 6.906V20.6835C7.5 22.689 8.502 24.5625 10.1715 25.6755L18 30.8955L25.8285 25.6755C27.498 24.5625 28.5 22.6905 28.5 20.685V6.906L18 4.575V4.5735ZM24.678 12.333L26.8005 14.454L17.2545 24L10.89 17.6355L13.011 15.5145L17.253 19.7565L24.678 12.3315V12.333Z" fill="#999999"/>
</svg>
