<svg width="36" height="36" viewBox="0 0 36 36" fill="none" xmlns="http://www.w3.org/2000/svg">
<path d="M3 18C3 16.7025 3.165 15.4455 3.474 14.244C4.3027 14.2875 5.1273 14.1011 5.85666 13.7053C6.58602 13.3094 7.19172 12.7197 7.60681 12.0011C8.0219 11.2825 8.23021 10.4632 8.20871 9.6336C8.18721 8.80404 7.93675 7.99657 7.485 7.30047C9.29841 5.51632 11.5362 4.22321 13.9875 3.54297C14.364 4.28318 14.938 4.90477 15.6459 5.33893C16.3538 5.7731 17.168 6.0029 17.9985 6.0029C18.829 6.0029 19.6432 5.7731 20.3511 5.33893C21.059 4.90477 21.633 4.28318 22.0095 3.54297C24.4608 4.22321 26.6986 5.51632 28.512 7.30047C28.0597 7.9967 27.8089 8.80447 27.7872 9.63442C27.7656 10.4644 27.974 11.2841 28.3893 12.003C28.8046 12.7219 29.4107 13.3118 30.1405 13.7076C30.8704 14.1034 31.6954 14.2895 32.5245 14.2455C32.8335 15.4455 32.9985 16.7025 32.9985 18C32.9985 19.2975 32.8335 20.5545 32.5245 21.756C31.6957 21.7121 30.8709 21.8983 30.1413 22.294C29.4117 22.6897 28.8058 23.2795 28.3905 23.9981C27.9752 24.7168 27.7668 25.5362 27.7882 26.3659C27.8097 27.1956 28.0602 28.0033 28.512 28.6995C26.6986 30.4836 24.4608 31.7767 22.0095 32.457C21.633 31.7168 21.059 31.0952 20.3511 30.661C19.6432 30.2268 18.829 29.997 17.9985 29.997C17.168 29.997 16.3538 30.2268 15.6459 30.661C14.938 31.0952 14.364 31.7168 13.9875 32.457C11.5362 31.7767 9.29841 30.4836 7.485 28.6995C7.93726 28.0032 8.18809 27.1955 8.20975 26.3655C8.23141 25.5356 8.02305 24.7158 7.60772 23.997C7.19239 23.2781 6.58628 22.6881 5.85646 22.2923C5.12664 21.8966 4.30156 21.7104 3.4725 21.7545C3.165 20.556 3 19.299 3 18ZM10.206 22.5C11.151 24.1365 11.421 26.019 11.052 27.786C11.664 28.221 12.315 28.5975 12.9975 28.911C14.3725 27.6792 16.154 26.9987 18 27C19.89 27 21.657 27.7065 23.0025 28.911C23.685 28.5975 24.336 28.221 24.948 27.786C24.5692 25.9799 24.8704 24.0976 25.794 22.5C26.7159 20.9015 28.1955 19.6997 29.949 19.125C30.0184 18.3766 30.0184 17.6234 29.949 16.875C28.195 16.3006 26.7148 15.0987 25.7925 13.5C24.8689 11.9024 24.5677 10.02 24.9465 8.21397C24.3347 7.77885 23.6833 7.4022 23.001 7.08897C21.6264 8.32037 19.8455 9.00088 18 8.99997C16.154 9.00125 14.3725 8.32071 12.9975 7.08897C12.3152 7.40221 11.6638 7.77886 11.052 8.21397C11.4308 10.02 11.1296 11.9024 10.206 13.5C9.28406 15.0984 7.80447 16.3002 6.051 16.875C5.98163 17.6234 5.98163 18.3766 6.051 19.125C7.80503 19.6994 9.28519 20.9012 10.2075 22.5H10.206ZM18 22.5C16.8065 22.5 15.6619 22.0259 14.818 21.182C13.9741 20.338 13.5 19.1934 13.5 18C13.5 16.8065 13.9741 15.6619 14.818 14.818C15.6619 13.9741 16.8065 13.5 18 13.5C19.1935 13.5 20.3381 13.9741 21.182 14.818C22.0259 15.6619 22.5 16.8065 22.5 18C22.5 19.1934 22.0259 20.338 21.182 21.182C20.3381 22.0259 19.1935 22.5 18 22.5ZM18 19.5C18.3978 19.5 18.7794 19.3419 19.0607 19.0606C19.342 18.7793 19.5 18.3978 19.5 18C19.5 17.6021 19.342 17.2206 19.0607 16.9393C18.7794 16.658 18.3978 16.5 18 16.5C17.6022 16.5 17.2206 16.658 16.9393 16.9393C16.658 17.2206 16.5 17.6021 16.5 18C16.5 18.3978 16.658 18.7793 16.9393 19.0606C17.2206 19.3419 17.6022 19.5 18 19.5Z" fill="#999999"/>
</svg>
