<svg width="36" height="36" viewBox="0 0 36 36" fill="none" xmlns="http://www.w3.org/2000/svg">
<path d="M14.9595 27H16.5V19.5H19.5V27H21.0405C21.2385 25.197 22.158 23.709 23.6505 22.0845C23.82 21.9015 24.8985 20.784 25.026 20.625C26.0855 19.3014 26.7495 17.7055 26.9417 16.0211C27.1339 14.3367 26.8464 12.6323 26.1124 11.1041C25.3784 9.57587 24.2276 8.28608 22.7927 7.38323C21.3578 6.48037 19.697 6.00117 18.0017 6.00081C16.3063 6.00044 14.6453 6.47894 13.21 7.38118C11.7747 8.28342 10.6234 9.57273 9.88872 11.1006C9.15404 12.6285 8.86584 14.3328 9.05732 16.0173C9.2488 17.7018 9.91217 19.298 10.971 20.622C11.1 20.7825 12.1815 21.9015 12.348 22.083C13.842 23.709 14.7615 25.197 14.9595 27ZM15 30V31.5H21V30H15ZM8.63103 22.5C7.21832 20.7349 6.33295 18.6067 6.07693 16.3604C5.8209 14.1142 6.20463 11.8413 7.18391 9.80358C8.16319 7.76588 9.69818 6.04627 11.6121 4.84284C13.5259 3.6394 15.7409 3.0011 18.0017 3.00146C20.2624 3.00183 22.4772 3.64084 24.3907 4.84488C26.3041 6.04893 27.8386 7.76903 28.8172 9.80704C29.7958 11.8451 30.1788 14.1181 29.9221 16.3642C29.6654 18.6104 28.7793 20.7384 27.366 22.503C26.436 23.661 24 25.5 24 27.75V31.5C24 32.2956 23.684 33.0587 23.1214 33.6213C22.5587 34.1839 21.7957 34.5 21 34.5H15C14.2044 34.5 13.4413 34.1839 12.8787 33.6213C12.3161 33.0587 12 32.2956 12 31.5V27.75C12 25.5 9.56253 23.661 8.63103 22.5Z" fill="#999999"/>
</svg>
