<svg width="36" height="36" viewBox="0 0 36 36" fill="none" xmlns="http://www.w3.org/2000/svg">
<path d="M25.5 4.5H31.5C31.8978 4.5 32.2794 4.65804 32.5607 4.93934C32.842 5.22064 33 5.60218 33 6V30C33 30.3978 32.842 30.7794 32.5607 31.0607C32.2794 31.342 31.8978 31.5 31.5 31.5H4.5C4.10218 31.5 3.72064 31.342 3.43934 31.0607C3.15804 30.7794 3 30.3978 3 30V6C3 5.60218 3.15804 5.22064 3.43934 4.93934C3.72064 4.65804 4.10218 4.5 4.5 4.5H10.5V1.5H13.5V4.5H22.5V1.5H25.5V4.5ZM30 16.5H6V28.5H30V16.5ZM22.5 7.5H13.5V10.5H10.5V7.5H6V13.5H30V7.5H25.5V10.5H22.5V7.5ZM9 19.5H12V22.5H9V19.5ZM16.5 19.5H19.5V22.5H16.5V19.5ZM24 19.5H27V22.5H24V19.5Z" fill="#999999"/>
</svg>
