<svg width="36" height="36" viewBox="0 0 36 36" fill="none" xmlns="http://www.w3.org/2000/svg">
<path d="M7.5 6.906V20.6835C7.50002 21.6712 7.74386 22.6436 8.20989 23.5144C8.67592 24.3853 9.34973 25.1276 10.1715 25.6755L18 30.8955L25.8285 25.6755C26.6501 25.1277 27.3237 24.3856 27.7898 23.5151C28.2558 22.6445 28.4997 21.6724 28.5 20.685V6.906L18 4.575L7.5 6.906ZM5.6745 4.239L18 1.5L30.3255 4.239C30.6586 4.31305 30.9565 4.49845 31.17 4.76461C31.3835 5.03077 31.4999 5.36177 31.5 5.703V20.6835C31.4999 22.1651 31.134 23.6238 30.4348 24.93C29.7357 26.2363 28.7248 27.3497 27.492 28.1715L18 34.5L8.508 28.1715C7.27541 27.3498 6.26469 26.2366 5.56552 24.9307C4.86635 23.6247 4.50035 22.1663 4.5 20.685V5.703C4.50006 5.36177 4.61646 5.03077 4.82998 4.76461C5.04351 4.49845 5.34141 4.31305 5.6745 4.239ZM18 20.25L13.5915 22.5675L14.433 17.6595L10.8675 14.1825L15.7965 13.4655L18 9L20.205 13.4655L25.1325 14.1825L21.567 17.6595L22.407 22.5675L18 20.25Z" fill="#999999"/>
</svg>
